<?xml version="1.0" standalone="no"?>
<svg version="1.0" xmlns="http://www.w3.org/2000/svg"
 width="219.000000pt" height="230.000000pt" viewBox="0 0 219.000000 230.000000"
 preserveAspectRatio="xMidYMid meet">

<g transform="translate(0.000000,230.000000) scale(0.100000,-0.100000)"
fill="#27AE60" stroke="none">
<path d="M162 1948 l3 -193 53 -3 52 -3 0 -394 0 -394 -52 -3 -53 -3 0 -185 0
-185 248 -3 247 -2 0 340 c0 187 3 340 8 340 4 0 45 -55 92 -122 47 -67 100
-143 118 -169 l34 -48 -257 -363 c-142 -199 -260 -368 -262 -375 -4 -10 36
-13 189 -13 l194 0 165 235 164 235 25 -30 25 -30 193 0 192 0 0 -205 0 -205
240 0 240 0 0 180 0 180 -55 0 -55 0 0 415 0 415 60 0 60 0 -2 178 -3 177
-275 3 -275 2 -175 -250 c-96 -137 -178 -250 -181 -250 -8 0 -94 130 -92 139
1 5 119 175 263 379 143 204 260 378 260 387 0 14 -25 15 -202 13 l-202 -3
-235 -337 c-130 -185 -239 -337 -243 -337 -5 -1 -8 152 -8 339 l0 340 -250 0
-250 0 2 -192z m1378 -1020 c0 -267 -2 -310 -14 -298 -27 29 -206 290 -206
300 0 11 208 310 216 310 2 0 4 -140 4 -312z"/>
</g>
</svg>